<?xml version="1.0" encoding="iso-8859-1"?>
<!-- Uploaded to: SVG Repo, www.svgrepo.com, Generator: SVG Repo Mixer Tools -->
<svg height="800px" width="800px" version="1.1" id="Layer_1" xmlns="http://www.w3.org/2000/svg" xmlns:xlink="http://www.w3.org/1999/xlink" 
	 viewBox="0 0 512 512" xml:space="preserve">
<path style="fill:#2C6991;" d="M268.628,34.439h-25.256c-9.51,0-17.22-7.71-17.22-17.22S233.862,0,243.372,0h25.256
	c9.51,0,17.22,7.71,17.22,17.22S278.138,34.439,268.628,34.439z"/>
<path style="fill:#528FB3;" d="M254.852,34.439h-11.48c-9.51,0-17.22-7.71-17.22-17.22S233.862,0,243.372,0h11.48V34.439z"/>
<path style="fill:#CCCCCC;" d="M399.776,101.679c-3.244-3.354-7.711-5.249-12.378-5.249H124.602c-4.667,0-9.133,1.894-12.378,5.249
	s-4.988,7.882-4.832,12.546l11.075,331.735c1.234,37.032,31.365,66.04,68.595,66.04h137.875c37.231,0,67.361-29.008,68.595-66.04
	l11.075-331.736C404.764,109.561,403.02,105.033,399.776,101.679z"/>
<path style="fill:#E1E1E1;" d="M254.85,96.43H124.602c-4.667,0-9.133,1.894-12.378,5.249s-4.988,7.882-4.832,12.546l11.075,331.735
	c1.234,37.032,31.365,66.04,68.595,66.04h67.786V96.43H254.85z"/>
<path style="fill:#2C6991;" d="M348.324,19.516H163.676c-31.27,0-55.766,24.542-55.766,55.872v26.782c0,9.51,7.71,17.22,17.22,17.22
	h261.74c9.51,0,17.22-7.71,17.22-17.22V75.388C404.09,44.057,379.594,19.516,348.324,19.516z"/>
<path style="fill:#528FB3;" d="M254.852,19.516h-91.176c-31.27,0-55.766,24.542-55.766,55.872v26.782c0,9.51,7.71,17.22,17.22,17.22
	h129.722V19.516z"/>
<path style="fill:#ABA8AB;" d="M254.852,429.345c-9.51,0-17.22-7.71-17.22-17.22V218.117c0-9.51,7.71-17.22,17.22-17.22
	c9.51,0,17.22,7.71,17.22,17.22v194.009C272.072,421.635,264.362,429.345,254.852,429.345z"/>
<path style="fill:#CCCCCC;" d="M254.852,429.345c-9.51,0-17.22-7.71-17.22-17.22V218.117c0-9.51,7.71-17.22,17.22-17.22V429.345z"/>
<path style="fill:#2C6991;" d="M398.597,136.791H113.403c-9.51,0-17.22-7.71-17.22-17.22s7.71-17.22,17.22-17.22h285.193
	c9.51,0,17.22,7.71,17.22,17.22S408.106,136.791,398.597,136.791z"/>
<path style="fill:#528FB3;" d="M254.852,136.791H113.403c-9.51,0-17.22-7.71-17.22-17.22s7.71-17.22,17.22-17.22h141.449V136.791z"
	/>
<path style="fill:#CCCCCC;" d="M200.031,428.999c-9.481,0.74-17.767-6.346-18.508-15.827l-15.104-193.42
	c-0.74-9.481,6.346-17.767,15.827-18.508c9.481-0.74,17.767,6.346,18.508,15.827l15.104,193.42
	C216.599,419.972,209.512,428.258,200.031,428.999z"/>
<path style="fill:#ABA8AB;" d="M311.969,428.999c9.481,0.74,17.767-6.346,18.508-15.827l15.104-193.42
	c0.74-9.481-6.346-17.767-15.827-18.508c-9.481-0.74-17.767,6.346-18.508,15.827l-15.104,193.42
	C295.401,419.972,302.488,428.258,311.969,428.999z"/>
</svg>